<svg xmlns="http://www.w3.org/2000/svg" width="20.672" height="39.214" viewBox="0 0 20.672 39.214"><g transform="translate(-43.327 -251.652)"><rect width="3.969" height="12.973" transform="translate(51.44 251.652)" fill="#fff"/><path d="M56.832,270.005h.177a6.991,6.991,0,0,1,6.99,6.93v13.921a7,7,0,0,1-6.99,6.99H50.257a6.952,6.952,0,0,1-6.93-6.99V276.935a6.931,6.931,0,0,1,6.693-6.93v3.021h6.812Z" transform="translate(0 -6.979)" fill="#e82e2e" fill-rule="evenodd"/><path d="M58.629,251.652h1.065a.281.281,0,0,1,.3.3v4.027a.319.319,0,0,1-.3.3H58.629a.317.317,0,0,1-.3-.3v-4.027a.279.279,0,0,1,.3-.3Z" transform="translate(-5.707 0)" fill="#ffb5b5" fill-rule="evenodd"/><path d="M54.654,300.014h0l.588-2.179h.516l1.018,3.8.372-1.419.258-.2h.974l.587-2.179h.517l.587,2.179h1.692a4.051,4.051,0,0,0,.186-1.19A2.756,2.756,0,0,0,59.269,296a2.68,2.68,0,0,0-1.978.9,2.646,2.646,0,0,0-1.964-.9,2.768,2.768,0,0,0-2.694,2.824,4.057,4.057,0,0,0,.2,1.19Z" transform="translate(-3.539 -16.865)" fill="#fff"/><path d="M60.112,302.362H61.8c-1.133,2.437-4.258,4.014-4.258,4.014s-3.11-1.577-4.243-4.014h1.806l.258-.2.387-1.419,1.018,3.8h.516l.587-2.18h.961l.258-.2.372-1.419.387,1.419Z" transform="translate(-3.794 -18.669)" fill="#fff"/><rect width="13" height="8" rx="1" transform="translate(47.163 267.866)" fill="#ffb5b5"/></g></svg>