<svg xmlns="http://www.w3.org/2000/svg" width="33.946" height="47.375" viewBox="0 0 33.946 47.375"><g transform="translate(-96.244 -164)"><g transform="translate(96.244 164)"><path d="M289.582,482.885l-.023-1.264a1.864,1.864,0,0,0-1.865-1.948l-2.84-.032a4.4,4.4,0,0,0,.451-1.79,3.959,3.959,0,0,0-7.917-.091,5.392,5.392,0,0,0,.419,1.819l-3.81-.087a1.887,1.887,0,0,0-1.911,1.929l-.039,1.3-4.847-.1a3.165,3.165,0,0,0-3.223,3.092l-.406,32.038a3.261,3.261,0,0,0,3.156,3.189l27.294.332a3.171,3.171,0,0,0,3.121-3.121l.37-32.1a3,3,0,0,0-3.018-3.1Z" transform="translate(-263.571 -473.897)" fill="#b479ff"/><path d="M294.875,519.791h0a1.6,1.6,0,0,1-1.659,1.617l-23.855-.3a1.618,1.618,0,0,1-1.615-1.659l.336-28.664a1.7,1.7,0,0,1,1.658-1.614l3.173.017a1.714,1.714,0,0,0,1.551,1.692l14.363.151a1.517,1.517,0,0,0,1.593-1.581l3.174.017a1.544,1.544,0,0,1,1.614,1.659Z" transform="translate(-264.489 -477.255)" fill="#fff"/><path d="M283.377,478.214h0a2.286,2.286,0,0,1,2.359-2.348,2.393,2.393,0,0,1,2.319,2.46,2.577,2.577,0,0,1-.818,1.74l-3.107-.05a2.256,2.256,0,0,1-.754-1.8Z" transform="translate(-267.925 -474.329)" fill="#dfc8fc"/><path d="M287.12,514.382h0a8.464,8.464,0,1,1,3.225-11.472,8.433,8.433,0,0,1-3.225,11.472Z" transform="translate(-265.972 -479.318)" fill="#fefefe"/><path d="M276.379,495.919h0a11.707,11.707,0,1,0,15.876,4.515,11.664,11.664,0,0,0-15.876-4.515Z" transform="translate(-265.182 -478.051)" fill="#b479ff"/></g><path d="M9.875,5.447a4.712,4.712,0,1,1,0,9.425v-1.01A3.7,3.7,0,1,0,6.234,9.486H8.192L5.836,12.179,3.48,9.486H5.211A4.713,4.713,0,0,1,9.875,5.447Zm2.02,4.039v1.346H9.2V7.466h1.346v2.02Z" transform="translate(103.699 182.282)" fill="#fff"/></g></svg>