<svg xmlns="http://www.w3.org/2000/svg" width="30.217" height="39.943" viewBox="0 0 30.217 39.943"><g transform="translate(-717.585 -33.622)"><path d="M745.62,35h-7.212v-.487a1,1,0,0,0-1.055-.891h-9.317a.994.994,0,0,0-1.049.891V35h-7.134a2.181,2.181,0,0,0-2.266,2.1V71.459a2.182,2.182,0,0,0,2.266,2.105H745.62a2.16,2.16,0,0,0,2.183-2.105V37.1A2.159,2.159,0,0,0,745.62,35Z" fill="#f9a358" fill-rule="evenodd"/><path d="M745.748,71.885h-25.2V38.02h6.888v.242a1,1,0,0,0,1.049.972H737.8a1,1,0,0,0,1.055-.972V38.02h6.889Z" transform="translate(-0.452 -0.67)" fill="#fefefe" fill-rule="evenodd"/><path d="M730.181,54.544a2.189,2.189,0,1,0-2.188,2.189,2.178,2.178,0,0,0,2.188-2.189Z" transform="translate(-1.253 -2.855)" fill="#f9a358" fill-rule="evenodd"/><path d="M741.546,53.5H734.1a1.193,1.193,0,0,0-1.217,1.215,1.214,1.214,0,0,0,1.217,1.3h7.451a1.277,1.277,0,0,0,1.3-1.3,1.262,1.262,0,0,0-1.3-1.215Z" transform="translate(-2.331 -3.03)" fill="#67cdfd" fill-rule="evenodd"/><path d="M730.181,62.381a2.189,2.189,0,1,0-2.188,2.189,2.177,2.177,0,0,0,2.188-2.189Z" transform="translate(-1.253 -4.05)" fill="#f9a358" fill-rule="evenodd"/><path d="M741.546,61.342H734.1a1.192,1.192,0,0,0-1.217,1.214,1.216,1.216,0,0,0,1.217,1.3h7.451a1.279,1.279,0,0,0,1.3-1.3,1.261,1.261,0,0,0-1.3-1.214Z" transform="translate(-2.331 -4.224)" fill="#67cdfd" fill-rule="evenodd"/><path d="M730.181,47.28a2.189,2.189,0,1,0-2.188,2.188,2.178,2.178,0,0,0,2.188-2.188Z" transform="translate(-1.253 -1.748)" fill="#f9a358" fill-rule="evenodd"/><path d="M730.181,70.03a2.189,2.189,0,1,0-2.188,2.186,2.178,2.178,0,0,0,2.188-2.186Z" transform="translate(-1.253 -5.215)" fill="#f9a358" fill-rule="evenodd"/><path d="M741.546,68.893H734.1a1.214,1.214,0,0,0-1.217,1.3A1.193,1.193,0,0,0,734.1,71.4h7.451a1.261,1.261,0,0,0,1.3-1.215,1.277,1.277,0,0,0-1.3-1.3Z" transform="translate(-2.331 -5.375)" fill="#67cdfd" fill-rule="evenodd"/><path d="M741.546,46.145H734.1a1.214,1.214,0,0,0-1.217,1.3,1.194,1.194,0,0,0,1.217,1.215h7.451a1.263,1.263,0,0,0,1.3-1.215,1.277,1.277,0,0,0-1.3-1.3Z" transform="translate(-2.331 -1.908)" fill="#67cdfd" fill-rule="evenodd"/></g></svg>