<svg xmlns="http://www.w3.org/2000/svg" width="33.178" height="36.363" viewBox="0 0 33.178 36.363"><g transform="translate(-379.513 -246.493)"><path d="M396.093,255.636h-2.879c-.672,1.156-1.352,2.358-2.036,3.62a6.049,6.049,0,0,0,6.952,0C396.859,258.484,396.412,256.966,396.093,255.636Z" transform="translate(1.448 1.135)" fill="#399" opacity="0.7"/><path d="M382.018,278.185c-.144-.436-.387-1.436-.668-2.674l3.022-.389c.151,1.368.263,2.509.287,3.061C384.718,279.6,382.533,279.751,382.018,278.185Z" transform="translate(0.228 3.555)" fill="#fff"/><g transform="translate(390.348 246.493)"><path d="M400.659,252.433a5.757,5.757,0,1,1-5.753-5.94A5.848,5.848,0,0,1,400.659,252.433Z" transform="translate(-389.151 -246.493)" fill="#fff"/></g><path d="M406.888,278.185c.143-.436.386-1.436.667-2.674l-3.021-.389c-.151,1.368-.263,2.509-.287,3.061C404.188,279.6,406.372,279.751,406.888,278.185Z" transform="translate(3.071 3.555)" fill="#fff"/><path d="M412.565,265.317c-.571-1.807-7.406-5.561-12.987-6.461a6.051,6.051,0,0,1-6.953,0c-5.581.9-12.416,4.654-12.986,6.461-.668,2.116,1.547,12.253,1.547,12.253l3.847-.374-.873-10.221,3.193-1.189.053,14.579H404.8l.054-14.579,3.193,1.189-.873,10.221,3.847.374S413.233,267.432,412.565,265.317Z" transform="translate(0 1.535)" fill="#399" opacity="0.7"/><path d="M.884,0H20.817A.884.884,0,0,1,21.7.884V19.973a.884.884,0,0,1-.884.884H.884A.884.884,0,0,1,0,19.973V.884A.884.884,0,0,1,.884,0Z" transform="translate(385.187 259.909)" fill="#6dbf9f"/><rect width="19.04" height="19.884" rx="0.076" transform="translate(405.979 260.818) rotate(90)" fill="#adffdf"/><g transform="translate(388.279 260.989)"><path d="M396.027,262.446v.462a2.5,2.5,0,0,0,1.594-.462c.463-.479.163-1.142-.4-1.48a2.712,2.712,0,0,0-1.646-.155v.37s1.233-.17,1.619.417S397.013,262.4,396.027,262.446Z" transform="translate(-386.285 -259.219)" fill="#399"/><path d="M396.175,262.615c.707-.053,1.089-.2,1.231-.48a.651.651,0,0,0-.1-.673,1.545,1.545,0,0,0-1.273-.529c.049,0,.1,0,.154,0a1.716,1.716,0,0,1,.87.19,1.042,1.042,0,0,1,.527.7.547.547,0,0,1-.164.467,1.962,1.962,0,0,1-1.243.4Z" transform="translate(-386.228 -259.197)" fill="#fff"/><path d="M395.09,263.838s2.211.528,3.17-.078c1.025-.648-.224-1.427-.224-1.427l.1-.506a1.258,1.258,0,0,1,.958.822c.359.782-.124,1.55-1.311,1.767a9.588,9.588,0,0,1-2.692-.054Z" transform="translate(-386.345 -259.085)" fill="#399"/><path d="M396.737,264.263a11.261,11.261,0,0,1-1.464-.106v-.094a8.713,8.713,0,0,0,1.586.165,2.809,2.809,0,0,0,1.487-.323.9.9,0,0,0,.5-.751,1.338,1.338,0,0,0-.606-.941l.03-.16a1.212,1.212,0,0,1,.614.653.877.877,0,0,1,.006.79,1.574,1.574,0,0,1-1.168.69A5.712,5.712,0,0,1,396.737,264.263Z" transform="translate(-386.322 -259.057)" fill="#fff"/><path d="M395.09,265.256s2.878.608,4.119-.194c1.071-.691-.144-1.141-.144-1.141l.238-.517a1.279,1.279,0,0,1,.954.9c.252.823-.83,1.569-2.363,1.772a8.86,8.86,0,0,1-2.8-.178Z" transform="translate(-386.345 -258.889)" fill="#399"/><path d="M397.066,265.889a9.508,9.508,0,0,1-1.793-.187v-.228a11.762,11.762,0,0,0,1.941.18,3.909,3.909,0,0,0,2.083-.449c.383-.247.562-.514.532-.791a.9.9,0,0,0-.516-.621l.08-.172a1.074,1.074,0,0,1,.646.71.623.623,0,0,1-.089.54,3.044,3.044,0,0,1-2.106.97A6.041,6.041,0,0,1,397.066,265.889Z" transform="translate(-386.322 -258.862)" fill="#fff"/><path d="M395.09,266.8a7.72,7.72,0,0,0,3.446.715c1.666-.144,1.875-1.116,1.758-1.491a1.083,1.083,0,0,0-.391-.6l.535-.411a1.712,1.712,0,0,1,.535,1.338c-.03.862-.9,1.789-2.8,1.789a6.154,6.154,0,0,1-3.086-.761Z" transform="translate(-386.345 -258.689)" fill="#399"/><path d="M398.153,267.911a6.218,6.218,0,0,1-2.88-.674v-.15a8,8,0,0,0,2.852.622c.138,0,.274-.006.406-.017a2.192,2.192,0,0,0,1.758-.827,1.119,1.119,0,0,0,.178-.929,1.493,1.493,0,0,0-.273-.518l.2-.155a1.549,1.549,0,0,1,.35,1.057C400.718,267.086,399.9,267.911,398.153,267.911Z" transform="translate(-386.322 -258.659)" fill="#fff"/><path d="M395.09,267.89a7.564,7.564,0,0,0,3.577,1.4c1.626.042,2.09-.706,2.1-1.261a.741.741,0,0,0-.2-.545l.473-.39a1.624,1.624,0,0,1,.31,1.243c-.1.823-1.267,1.821-3.116,1.579a7.471,7.471,0,0,1-3.149-1.325Z" transform="translate(-386.345 -258.432)" fill="#399"/><path d="M398.768,269.709a4,4,0,0,1-.525-.035,7.223,7.223,0,0,1-2.97-1.226v-.2a7.205,7.205,0,0,0,3.367,1.214h.132c1.586,0,2.164-.757,2.177-1.465a1.012,1.012,0,0,0-.121-.513l.15-.125a1.527,1.527,0,0,1,.153.916C401.056,268.851,400.253,269.709,398.768,269.709Z" transform="translate(-386.322 -258.399)" fill="#fff"/><path d="M399.115,264.482l-.324.278-.833-.463.494-.324Z" transform="translate(-385.989 -258.819)" fill="#399"/><path d="M398.31,264.254l.089-.059.348.267-.024.021Z" transform="translate(-385.945 -258.791)" fill="#fff"/><path d="M398.817,265.647l-.571.293,1.188.678.324-.355Z" transform="translate(-385.953 -258.611)" fill="#399"/><path d="M398.628,265.923l.129-.066.64.42-.051.056Z" transform="translate(-385.905 -258.585)" fill="#fff"/><path d="M401.213,268.967a1.214,1.214,0,0,1,.486.71.971.971,0,0,1-.069.909,1.187,1.187,0,0,1,.278.863c.012.633-.246.763-.246.763a1.452,1.452,0,0,1,.2.651,1.149,1.149,0,0,1-.248.793,1.546,1.546,0,0,1,.247.817,2.156,2.156,0,0,1-1.522,2.082c-1.275.432-2.273-.633-2.982-1.712s-2.637-4.952-2.637-4.952l.416-.817s2.746,2.013,4.69,2.013.863-1.642.863-1.642Zm-6.077.746-.193.288s1.058,1.727,1.413,1.481S395.136,269.713,395.136,269.713Zm2.6,2.416c-.206.268.735,1.137,1.886,1.033a2.128,2.128,0,0,0,1.784-1.445c.1-.375-.07-.741-.389-.56s-.366.772-1.323.849S397.952,271.852,397.738,272.129Zm2.016,2.879c1.347-.072,1.666-1.85,1.573-1.922s-.422.422-1,.8-1.887-.142-2.016.1S398.406,275.08,399.754,275.008Zm-.052,1.208c1.364,0,1.542-1.465,1.542-1.465a2.088,2.088,0,0,1-1.4.822c-1.026.17-1.6-.432-1.673-.288C398.067,275.5,398.7,276.219,399.7,276.217Zm-2.591-2.36c.286.44.6-.031.362-.378-.178-.261-.933-1.105-1.017-1.034C396.356,272.531,396.826,273.418,397.111,273.857Z" transform="translate(-386.391 -258.199)" fill="#399"/><path d="M399.712,276.42a1.485,1.485,0,0,1-.389-.052,2.175,2.175,0,0,0,.325.024,1.8,1.8,0,0,0,1.75-1.646l-.377-.133a1.881,1.881,0,0,1-1.262.728,2.076,2.076,0,0,1-.332.028,2.207,2.207,0,0,1-.972-.245.743.743,0,0,0-.295-.1.24.24,0,0,0-.225.139.332.332,0,0,0-.031.124c-.141-.176-.282-.372-.426-.59-.087-.133-.193-.31-.314-.518a.362.362,0,0,0,.137.026h0a.393.393,0,0,0,.345-.224.643.643,0,0,0-.054-.652c-.008-.011-.857-1.128-1.174-1.128h-.075l-.071.053a.22.22,0,0,0-.07.154c-.2-.373-.389-.748-.565-1.092a.985.985,0,0,0,.587.359h0a.34.34,0,0,0,.2-.061.331.331,0,0,0,.138-.246c.037-.46-.92-1.438-1.332-1.837l-.109-.1.042-.083c.673.464,2.909,1.914,4.615,1.914a1.85,1.85,0,0,0,.952-.207,1.832,1.832,0,0,0-.171.2,1.1,1.1,0,0,1-.927.515c-.133.01-.271.016-.422.016-.211,0-.409-.011-.589-.019-.154-.009-.3-.016-.42-.016a.8.8,0,0,0-.672.22.392.392,0,0,0-.013.438,2.229,2.229,0,0,0,1.873.933c.069,0,.137,0,.207-.01a2.312,2.312,0,0,0,1.763-1.143l.09.111a1.294,1.294,0,0,1,.163.552.9.9,0,0,1-.147.564c.09-.41-.019-.5-.058-.526l-.056-.043-.091-.007c-.136,0-.238.1-.425.282a4.425,4.425,0,0,1-.663.56.963.963,0,0,1-.518.11,5.339,5.339,0,0,1-.687-.062,3.865,3.865,0,0,0-.486-.047.423.423,0,0,0-.393.178.763.763,0,0,0,.083.7,1.483,1.483,0,0,0,1.381.619c.054,0,.11,0,.167,0a1.985,1.985,0,0,0,1.663-1.465l.026.034a1.381,1.381,0,0,1,.2.7,1.964,1.964,0,0,1-1.383,1.877A1.619,1.619,0,0,1,399.712,276.42Zm1.727-4.376a1.638,1.638,0,0,0,.119-.3.824.824,0,0,0-.1-.7.42.42,0,0,0-.334-.169.522.522,0,0,0-.251.07.8.8,0,0,0,.163-.21,1.436,1.436,0,0,0-.141-1.279l.272-.248a1.44,1.44,0,0,1,.283.508.785.785,0,0,1-.037.717l-.113.152.141.127a1.043,1.043,0,0,1,.208.714c.009.468-.145.582-.147.583Z" transform="translate(-386.341 -258.169)" fill="#fff"/><path d="M400.236,270.237l-.71-.606-.411.113.823.864Z" transform="translate(-385.845 -258.116)" fill="#399"/><path d="M399.579,269.954l.315.269-.027.033Z" transform="translate(-385.787 -258.076)" fill="#fff"/><path d="M399.975,268.336l-.9-.534-.422.205.9.72Z" transform="translate(-385.903 -258.343)" fill="#399"/><path d="M398.988,268.023l.031-.015.574.339-.091.085Z" transform="translate(-385.861 -258.318)" fill="#fff"/><path d="M398.125,267.233l.51-.114-1.81-1.141-.884-.062Z" transform="translate(-386.239 -258.577)" fill="#399"/><path d="M398.125,267.233l.51-.114-1.81-1.141-.884-.062Z" transform="translate(-386.239 -258.577)" fill="#399"/><path d="M395.519,262.154a.825.825,0,0,1-.262-.418h-1.69a.833.833,0,0,1-.262.418,1.289,1.289,0,0,1-.7.153v.524a1.782,1.782,0,0,1,.824.293.7.7,0,0,1,.3.463h1.357a.692.692,0,0,1,.3-.463,1.776,1.776,0,0,1,.823-.293v-.524A1.285,1.285,0,0,1,395.519,262.154Z" transform="translate(-386.653 -259.096)" fill="#399"/><path d="M393.867,263.36a1.1,1.1,0,0,0-.328-.416,1.738,1.738,0,0,0-.75-.311v-.146a1.455,1.455,0,0,0,.595-.178.807.807,0,0,0,.3-.391h1.4a.807.807,0,0,0,.3.391,1.455,1.455,0,0,0,.595.178v.146a1.732,1.732,0,0,0-.75.311,1.079,1.079,0,0,0-.328.416Z" transform="translate(-386.63 -259.074)" fill="#fff"/><path d="M395.086,263.616h-1.573s-.039,6,.076,6.263a.775.775,0,0,0,1.419,0C395.125,269.611,395.086,263.616,395.086,263.616Z" transform="translate(-386.541 -258.863)" fill="#399"/><path d="M394.278,270.113a.6.6,0,0,1-.523-.339c-.067-.273-.074-3.727-.062-5.976h1.167c.014,2.249.006,5.7-.067,5.992A.589.589,0,0,1,394.278,270.113Z" transform="translate(-386.519 -258.84)" fill="#fff"/><path d="M392.649,262.446v.462a2.5,2.5,0,0,1-1.6-.462c-.463-.479-.162-1.142.4-1.48a2.716,2.716,0,0,1,1.647-.155v.37s-1.233-.17-1.62.417S391.663,262.4,392.649,262.446Z" transform="translate(-386.874 -259.219)" fill="#399"/><path d="M392.422,262.679a1.962,1.962,0,0,1-1.243-.4.543.543,0,0,1-.164-.467,1.039,1.039,0,0,1,.527-.7,1.713,1.713,0,0,1,.87-.19c.053,0,.1,0,.154,0a1.547,1.547,0,0,0-1.274.529.651.651,0,0,0-.1.673c.141.277.524.427,1.231.48Z" transform="translate(-386.851 -259.197)" fill="#fff"/><path d="M393.789,263.838s-2.211.528-3.169-.078c-1.026-.648.223-1.427.223-1.427l-.1-.506a1.258,1.258,0,0,0-.958.822c-.359.782.123,1.55,1.311,1.767a9.579,9.579,0,0,0,2.691-.054Z" transform="translate(-387.018 -259.085)" fill="#399"/><path d="M392.1,264.263a5.709,5.709,0,0,1-.986-.075,1.57,1.57,0,0,1-1.168-.691.868.868,0,0,1,.006-.789,1.225,1.225,0,0,1,.613-.652l.031.159a1.335,1.335,0,0,0-.606.941.9.9,0,0,0,.5.751,2.816,2.816,0,0,0,1.488.323,8.735,8.735,0,0,0,1.586-.165v.094a11.287,11.287,0,0,1-1.464.106Z" transform="translate(-386.995 -259.057)" fill="#fff"/><path d="M393.909,265.256s-2.877.608-4.118-.194c-1.071-.691.144-1.141.144-1.141l-.239-.517a1.277,1.277,0,0,0-.953.9c-.252.823.83,1.569,2.363,1.772a8.851,8.851,0,0,0,2.8-.178Z" transform="translate(-387.137 -258.889)" fill="#399"/><path d="M391.888,265.889a6.015,6.015,0,0,1-.779-.047,3.05,3.05,0,0,1-2.107-.97.626.626,0,0,1-.088-.54,1.075,1.075,0,0,1,.646-.71l.079.172a.9.9,0,0,0-.515.621c-.03.278.148.544.532.791a3.906,3.906,0,0,0,2.083.449,11.919,11.919,0,0,0,1.941-.18v.228a9.52,9.52,0,0,1-1.793.187Z" transform="translate(-387.115 -258.862)" fill="#fff"/><path d="M393.984,266.8a7.713,7.713,0,0,1-3.444.715c-1.666-.144-1.876-1.116-1.759-1.491a1.09,1.09,0,0,1,.391-.6l-.534-.411a1.712,1.712,0,0,0-.535,1.338c.03.862.9,1.789,2.8,1.789a6.153,6.153,0,0,0,3.085-.761Z" transform="translate(-387.212 -258.689)" fill="#399"/><path d="M390.876,267.911c-1.744,0-2.565-.825-2.592-1.592a1.541,1.541,0,0,1,.35-1.057l.2.155a1.494,1.494,0,0,0-.272.518,1.119,1.119,0,0,0,.178.929,2.192,2.192,0,0,0,1.758.827q.2.017.4.017a8,8,0,0,0,2.853-.622v.15A6.218,6.218,0,0,1,390.876,267.911Z" transform="translate(-387.19 -258.659)" fill="#fff"/><path d="M394.028,267.89a7.558,7.558,0,0,1-3.577,1.4c-1.624.042-2.089-.706-2.1-1.261a.741.741,0,0,1,.2-.545l-.473-.39a1.627,1.627,0,0,0-.311,1.243c.106.823,1.268,1.821,3.117,1.579a7.463,7.463,0,0,0,3.148-1.325Z" transform="translate(-387.256 -258.432)" fill="#399"/><path d="M390.3,269.709c-1.485,0-2.287-.858-2.361-1.437a1.526,1.526,0,0,1,.152-.916l.151.125a1.011,1.011,0,0,0-.121.513c.013.708.591,1.465,2.176,1.465h.133a7.2,7.2,0,0,0,3.367-1.214v.2a7.245,7.245,0,0,1-2.97,1.226,4.029,4.029,0,0,1-.526.035Z" transform="translate(-387.234 -258.399)" fill="#fff"/><path d="M389.437,264.482l.324.278.833-.463-.494-.324Z" transform="translate(-387.046 -258.819)" fill="#399"/><path d="M389.726,264.463l.347-.267.089.059-.412.229Z" transform="translate(-387.011 -258.791)" fill="#fff"/><path d="M389.774,265.647l.571.293-1.188.678-.324-.355Z" transform="translate(-387.121 -258.611)" fill="#399"/><path d="M389.112,266.277l.64-.42.129.066-.718.41Z" transform="translate(-387.087 -258.585)" fill="#fff"/><path d="M388.53,269.446s-1.08,1.642.863,1.642,4.689-2.013,4.689-2.013l.417.817s-1.928,3.873-2.638,4.952-1.708,2.144-2.982,1.712a2.155,2.155,0,0,1-1.521-2.082,1.541,1.541,0,0,1,.246-.817,1.144,1.144,0,0,1-.247-.793,1.436,1.436,0,0,1,.2-.651s-.26-.13-.246-.763a1.187,1.187,0,0,1,.278-.863.973.973,0,0,1-.07-.909,1.219,1.219,0,0,1,.486-.71Zm4.334,2.036c.355.246,1.413-1.481,1.413-1.481l-.194-.288S392.509,271.234,392.863,271.482Zm-3.341.525c-.957-.076-1.012-.673-1.323-.849s-.488.184-.39.56a2.13,2.13,0,0,0,1.784,1.445c1.152.1,2.093-.766,1.887-1.033S390.479,272.083,389.522,272.007Zm1.382,1.984c-.127-.245-1.439.278-2.014-.1s-.9-.873-1-.8.227,1.85,1.574,1.922S391.028,274.227,390.9,273.991Zm.145,1.3c-.07-.144-.648.457-1.674.288a2.084,2.084,0,0,1-1.4-.822s.179,1.463,1.542,1.465C390.519,276.219,391.151,275.5,391.049,275.286Zm1.714-2.841c-.084-.071-.841.773-1.018,1.034-.236.346.078.817.363.378S392.863,272.531,392.763,272.445Z" transform="translate(-387.311 -258.199)" fill="#399"/><path d="M389.827,276.368a1.526,1.526,0,0,1-.393.052,1.612,1.612,0,0,1-.511-.087,1.962,1.962,0,0,1-1.383-1.877,1.394,1.394,0,0,1,.2-.7l.025-.034a1.988,1.988,0,0,0,1.663,1.466c.058,0,.115,0,.169,0h0a1.479,1.479,0,0,0,1.379-.619.761.761,0,0,0,.084-.7.424.424,0,0,0-.393-.178,3.881,3.881,0,0,0-.487.047,5.3,5.3,0,0,1-.686.062.963.963,0,0,1-.518-.11,4.424,4.424,0,0,1-.663-.56c-.187-.182-.29-.282-.425-.282h-.071l-.076.049c-.04.03-.148.116-.058.526a.915.915,0,0,1-.148-.564,1.291,1.291,0,0,1,.165-.554l.082-.119a2.314,2.314,0,0,0,1.768,1.153c.07.007.139.01.208.01a2.231,2.231,0,0,0,1.873-.933.392.392,0,0,0-.013-.438.8.8,0,0,0-.672-.22c-.125,0-.266.007-.422.016-.179.008-.378.019-.589.019-.15,0-.288-.006-.422-.016a1.1,1.1,0,0,1-.927-.515,1.714,1.714,0,0,0-.171-.2,1.855,1.855,0,0,0,.953.207c1.705,0,3.941-1.45,4.615-1.914l.042.083-.109.1c-.414.4-1.369,1.377-1.332,1.837a.324.324,0,0,0,.138.246.337.337,0,0,0,.2.061.981.981,0,0,0,.587-.359c-.175.344-.369.718-.564,1.092a.225.225,0,0,0-.07-.154l-.057-.048-.089,0c-.318,0-1.166,1.116-1.174,1.128a.643.643,0,0,0-.054.652.392.392,0,0,0,.345.224h0a.36.36,0,0,0,.136-.026c-.119.208-.226.386-.314.518-.143.218-.284.414-.426.589a.311.311,0,0,0-.03-.123.242.242,0,0,0-.225-.139.743.743,0,0,0-.295.1,2.217,2.217,0,0,1-.974.245,2.087,2.087,0,0,1-.332-.028,1.879,1.879,0,0,1-1.262-.73l-.375.134a1.8,1.8,0,0,0,1.746,1.646h0A2.453,2.453,0,0,0,389.827,276.368Zm-2.2-4.366h0s-.145-.119-.135-.577a1.032,1.032,0,0,1,.21-.716l.135-.129-.112-.15a.787.787,0,0,1-.036-.715,1.441,1.441,0,0,1,.284-.507l.272.247a1.436,1.436,0,0,0-.141,1.279.821.821,0,0,0,.162.21.515.515,0,0,0-.25-.07.421.421,0,0,0-.335.169.828.828,0,0,0-.094.7,1.562,1.562,0,0,0,.119.3Z" transform="translate(-387.288 -258.169)" fill="#fff"/><path d="M388.312,270.237l.709-.606.411.113-.823.864Z" transform="translate(-387.186 -258.116)" fill="#399"/><path d="M388.565,270.223l.315-.269-.288.3Z" transform="translate(-387.155 -258.076)" fill="#fff"/><path d="M388.6,268.336l.9-.534.422.205-.9.72Z" transform="translate(-387.151 -258.343)" fill="#399"/><path d="M388.9,268.347l.574-.339.031.015-.513.409Z" transform="translate(-387.113 -258.318)" fill="#fff"/><path d="M390.6,267.233l-.51-.114,1.81-1.141.884-.062Z" transform="translate(-386.966 -258.577)" fill="#399"/><path d="M390.6,267.233l-.51-.114,1.81-1.141.884-.062Z" transform="translate(-386.966 -258.577)" fill="#399"/><path d="M394.856,270.412a.581.581,0,0,0-1.141,0c-.07.192-.17.812,0,.956a1.75,1.75,0,0,0,1.141,0C395.026,271.224,394.926,270.6,394.856,270.412Z" transform="translate(-386.527 -258.078)" fill="#399"/><path d="M394.418,271.244a1.06,1.06,0,0,1-.13-.007l-.024,0-.026,0a1.04,1.04,0,0,1-.13.007.51.51,0,0,1-.282-.054,1.527,1.527,0,0,1,.06-.731c.076-.212.163-.335.378-.335s.3.123.378.335a1.446,1.446,0,0,1,.053.739.576.576,0,0,1-.275.046Z" transform="translate(-386.505 -258.055)" fill="#fff"/><path d="M394.782,271.494h-1a.128.128,0,0,0-.127.127v1.092a.206.206,0,0,0,.206.207h.843a.206.206,0,0,0,.207-.207v-1.092A.128.128,0,0,0,394.782,271.494Z" transform="translate(-386.523 -257.885)" fill="#399"/><path d="M393.837,272.669l.018-.975h.807v.975Z" transform="translate(-386.5 -257.86)" fill="#fff"/><path d="M394.73,260.5h-.909a.108.108,0,0,0-.116.1v.836a.174.174,0,0,0,.187.159h.767a.175.175,0,0,0,.188-.159v-.836A.108.108,0,0,0,394.73,260.5Z" transform="translate(-386.517 -259.25)" fill="#399"/><path d="M393.871,261.4l.016-.747h.734v.747Z" transform="translate(-386.496 -259.231)" fill="#fff"/><path d="M394.73,259.388h-.909a.108.108,0,0,0-.116.1v.836a.174.174,0,0,0,.187.159h.767a.175.175,0,0,0,.188-.159v-.836A.108.108,0,0,0,394.73,259.388Z" transform="translate(-386.517 -259.388)" fill="#399"/><path d="M393.871,260.288l.016-.747h.734v.747Z" transform="translate(-386.496 -259.369)" fill="#fff"/><path d="M394.782,273.124h-1a.128.128,0,0,0-.127.127v1.092a.206.206,0,0,0,.206.207h.843a.206.206,0,0,0,.207-.207v-1.092A.128.128,0,0,0,394.782,273.124Z" transform="translate(-386.523 -257.683)" fill="#399"/><path d="M393.837,274.3l.018-.975h.807v.975Z" transform="translate(-386.5 -257.658)" fill="#fff"/><path d="M394.782,274.753h-1a.128.128,0,0,0-.127.127v1.092a.206.206,0,0,0,.206.207h.843a.206.206,0,0,0,.207-.207V274.88A.128.128,0,0,0,394.782,274.753Z" transform="translate(-386.523 -257.48)" fill="#399"/><path d="M393.837,275.928l.018-.975h.807v.975Z" transform="translate(-386.5 -257.455)" fill="#fff"/></g><path d="M.884,0h.7a0,0,0,0,1,0,0V6.5a0,0,0,0,1,0,0h-.7A.884.884,0,0,1,0,5.613V.884A.884.884,0,0,1,.884,0Z" transform="translate(383.604 267.089)" fill="#9cf"/></g></svg>