<svg xmlns="http://www.w3.org/2000/svg" width="40.596" height="39.214" viewBox="0 0 40.596 39.214"><g transform="translate(-105.835 -195.862)"><g transform="translate(124.984 195.862)"><path d="M510.44,389.918l1.92.419-.025-1.748-.369,1.3Z" transform="translate(-499.414 -374.216)" fill="#376b54"/><path d="M512.751,388.252l1.748-.985-.025.689Z" transform="translate(-501.552 -372.993)" fill="#376b54"/><path d="M366.527,293.12c-.559-.712,2-8.217,3.163-7.665,2.61,1.246-.948,8.108-.948,8.108Z" transform="translate(-366.161 -278.747)" fill="#79b29c"/><path d="M387.154,285.662c-.314-.15-.222,1.092-.652,1.83.3.824-.092,1.324-.242,2.762a8.8,8.8,0,0,1-.94,3.338l.887.177S389.764,286.908,387.154,285.662Z" transform="translate(-383.625 -278.954)" fill="#5f9982"/><path d="M362.881,369.191s-.788-1.3.222-2.019,3.453.451,1.945,2.659C364.038,371.308,362.881,369.191,362.881,369.191Z" transform="translate(-362.589 -354.203)" fill="#9ed8c0"/><path d="M368.169,367.539a2.323,2.323,0,0,1,.049.474c0,.972-.584,1.76-1.3,1.76-.016,0-.031,0-.047,0,.177.3,1.22,1.941,2.14.594C370.077,368.8,369.155,367.755,368.169,367.539Z" transform="translate(-366.547 -354.736)" fill="#79bf9f"/><path d="M430.712,428.41c0-.453-1.686-1.814-1.536-2.85s2.322-9.279-.14-11.691c-.454-.445-5.33.808-5.63,2.363s-1.774,8.9-1.511,10.192c.525,2.57,1.4,10.036,1.4,10.036h.375c-.375-1.749.625-6.991.625-7.315s-1.074-2.062-1.074-3.1,1.984-5.827,2.585-6.867c.187-.324,1.236-.356,1.424-.13.248.3.063,5.517.662,7.2a86.672,86.672,0,0,1,2.6,10.209h.337C430.524,435.423,430.712,428.863,430.712,428.41Z" transform="translate(-417.443 -397.525)" fill="#528972"/><path d="M430.712,428.41c0-.453-1.686-1.814-1.536-2.85s2.322-9.279-.14-11.691c-.454-.445-5.33.808-5.63,2.363s-1.774,8.9-1.511,10.192c.283,1.386.668,4.2.962,6.491.006,0,.012,0,.018,0,.337,0,.609.992.609,2.216a6.707,6.707,0,0,1-.123,1.333h.308c-.375-1.749.625-6.991.625-7.315s-1.074-2.062-1.074-3.1,1.984-5.827,2.585-6.867c.187-.324,1.236-.356,1.424-.13.248.3.063,5.517.662,7.2.323.906.985,3.23,1.563,5.486.039-.1.087-.165.144-.172.27-.034.634,1.1.814,2.528a8.878,8.878,0,0,1,.053,2.185c.009.064.017.125.024.182h.337C430.524,435.423,430.712,428.863,430.712,428.41Z" transform="translate(-417.443 -397.525)" fill="#376b54"/><path d="M400.9,287.907c-.089-2,1.222-4.348.385-5.635s-4-4.57-3.159-6.345,5.464-2.174,6.069-1.464,1.333,6.279,1.665,6.877c.837,1.509,2.183,4.57,1.948,5.457S400.921,288.442,400.9,287.907Z" transform="translate(-395.342 -268.293)" fill="#6d635a"/><path d="M530.106,713.422h1.34s-.529-.665-.774-.665C530.519,712.757,530.106,713.422,530.106,713.422Z" transform="translate(-517.613 -674.208)" fill="#ffcd9c"/><path d="M424.134,713.422h1.773s-.223-.665-.452-.665A11.329,11.329,0,0,0,424.134,713.422Z" transform="translate(-419.544 -674.208)" fill="#ffcd9c"/><path d="M396.637,295.26s-.457-4.482-.453-6.168c0-1.731,1.254-8.588,1.468-10.249a7.419,7.419,0,0,0-1.574-5.9c-.325-.621-1.815-2.4-1.3-4.037,0,0,1.265-2.307,2.385-2.529s3.534.067,3.906.776,1.306,5.79,1.864,6.722a36.18,36.18,0,0,1,1.81,4.961c.833,2.928-3.516,7.284-.5,15.67,0,0-2.566-.444-4.06.488C398.472,296.06,397.615,295.881,396.637,295.26Z" transform="translate(-392.279 -261.048)" fill="#79b29c"/><path d="M441.917,288.97a36.188,36.188,0,0,0-1.81-4.961c-.558-.932-1.492-6.012-1.864-6.722-.181-.345-1.864,2.066-1.975,4.91-.09,2.3,1.106,4.125-.355,4.577a1.969,1.969,0,0,1-1.064.019,8.761,8.761,0,0,1-.009,2.044c3.607-1.8,6.931.653,4.863,6.764-.712,2.1-.079,6.248-.332,8.974a12.159,12.159,0,0,0,2.474.037C438.828,296.226,442.75,291.9,441.917,288.97Z" transform="translate(-429.451 -271.183)" fill="#5f9982"/><path d="M419.49,239.057l-1.049-3.146-1.182,2.945.366,1.052a.751.751,0,0,0,.422.442c.2.084.522.237.721.153A1.415,1.415,0,0,0,419.49,239.057Z" transform="translate(-413.182 -232.924)" fill="#ffcd9c"/><path d="M419,285.265l.96.246.763.572S419.727,286.97,419,285.265Z" transform="translate(-414.794 -278.597)" fill="#5f9982"/><path d="M418.753,287.741l.96.246.763.572S419.479,289.446,418.753,287.741Z" transform="translate(-414.564 -280.889)" fill="#79b29c"/><path d="M451.477,282.08c.235-1.068,1.04-8.615,2.093-7.9,3.026,2.067.507,8.541.507,8.541Z" transform="translate(-444.848 -268.298)" fill="#79b29c"/><path d="M472.115,274.782c.624,1.083,1.53,1.962.476,5.818a8.344,8.344,0,0,1-1.075,2.449l1.105.274S475.141,276.849,472.115,274.782Z" transform="translate(-463.393 -268.896)" fill="#5f9982"/><path d="M444.872,363.393s1.461-.654,2.127.422-.856,3.46-3.01,1.671C442.83,364.524,444.872,363.393,444.872,363.393Z" transform="translate(-437.589 -350.717)" fill="#9ed8c0"/><path d="M446.861,365.6a1.246,1.246,0,0,0-.513-.475c.035.536-.687,1.2-1.719,1.547a3.857,3.857,0,0,1-1.145.208,1.508,1.508,0,0,0,.367.391C446.059,368.99,447.526,366.672,446.861,365.6Z" transform="translate(-437.451 -352.498)" fill="#79bf9f"/><path d="M404.59,375.886c.422-.756,3-4.76,3.79-4.849s2.494.823,2.283,1.334-5.045,2.847-5.7,3.692Z" transform="translate(-401.458 -357.968)" fill="#ffcd9c"/><path d="M410.73,371.042c.586.176,1.088.529.949.865-.192.465-3.576,2.983-4.687,4.074l.194.092c.655-.845,5.489-3.18,5.7-3.692C413.086,371.9,411.564,371.05,410.73,371.042Z" transform="translate(-403.68 -357.977)" fill="#f4ad7d"/><path d="M365.23,380.08c-.187-.785-1.335-3.134-1.153-3.748.454-1.528,2.428-1.281,2.71.489.087.548-1.147,2.411-1.12,3.309Z" transform="translate(-363.948 -361.94)" fill="#ffcd9c"/><path d="M370.5,376.832c-.242-1.517-1.725-1.914-2.43-1.035a1.164,1.164,0,0,1,.684-.063c.594.1.969,1.39.724,2.89a10.858,10.858,0,0,0-.106,1.516h.008C369.353,379.244,370.588,377.381,370.5,376.832Z" transform="translate(-367.661 -361.952)" fill="#f4ad7d"/><path d="M402.052,430.012l.691.481s-.241.368-.354.385-.56-.28-.542-.394A2.935,2.935,0,0,1,402.052,430.012Z" transform="translate(-398.919 -412.549)" fill="#9ed8c0"/><path d="M376.516,433.951l.843.033s.019.423-.063.5-.619.063-.671-.039A2.838,2.838,0,0,1,376.516,433.951Z" transform="translate(-375.477 -416.195)" fill="#9ed8c0"/><path d="M442.026,429.7c-.926-.034,3.508-.739,4.468-.074S443.023,429.736,442.026,429.7Z" transform="translate(-435.985 -411.928)" fill="#5f9982"/><path d="M445.735,414.75c-.67.056,2.393-.888,3.194-.459S446.457,414.689,445.735,414.75Z" transform="translate(-439.446 -397.897)" fill="#79b29c"/><path d="M436.826,267.3l.08,1.212a1.376,1.376,0,0,0,1-1.7c-.062-.271-.277-.665-.56-.7A2.278,2.278,0,0,1,436.826,267.3Z" transform="translate(-431.289 -260.877)" fill="#5f9982"/><path d="M439.55,268.289l.08,1.212a1.376,1.376,0,0,0,1-1.7c-.062-.271-.277-.665-.56-.7A2.277,2.277,0,0,1,439.55,268.289Z" transform="translate(-433.81 -261.794)" fill="#79b29c"/><path d="M411.117,311.325a4.9,4.9,0,0,0,1.526,3.99A6.243,6.243,0,0,1,411.117,311.325Z" transform="translate(-407.48 -302.714)" fill="#9ed8c0"/><path d="M413.859,308.372l-2.782.332.016.158Z" transform="translate(-407.461 -299.981)" fill="#9ed8c0"/><path d="M450.678,557.075a20.022,20.022,0,0,1-.738-7.853c.911,6.4,2.585,7.066,2.585,7.066A11.661,11.661,0,0,0,450.678,557.075Z" transform="translate(-443.32 -522.834)" fill="#5f9982"/><path d="M484.157,435.1c-.3.044-.419,3.57-.788,5.071,1.059-.985,1.034-4.358,2.339-3.816C485.708,436.354,484.649,435.024,484.157,435.1Z" transform="translate(-474.361 -417.254)" fill="#5f9982"/><path d="M481.988,309.857c-.166.351-1.089,2.493-.831,2.2s.794-1.108.812-.609C482.394,311.334,481.988,309.857,481.988,309.857Z" transform="translate(-472.273 -301.355)" fill="#5f9982"/><path d="M406.623,242.342c1.179.621,2.43-1.036,3.381-2.84.161-.305.3-.6.421-.869a6.127,6.127,0,0,0-2.165-.446.357.357,0,0,0-.088-.023l0,.019h-.035l-.757-2.27-1.092,2.721a5.966,5.966,0,0,0-.981,1.085A3.362,3.362,0,0,0,406.623,242.342Z" transform="translate(-402.118 -232.924)" fill="#b7624f" opacity="0.6" style="mix-blend-mode:multiply;isolation:isolate"/><path d="M375.774,235.444c0-.2-.4-.357-.9-.357s-.935.16-.935.357.5.3,1,.3S375.774,235.641,375.774,235.444Z" transform="translate(-373.093 -232.162)" fill="#5f9982"/><path d="M434.335,226.919l1.031-.677-.059.464Z" transform="translate(-428.984 -223.976)" fill="#79b29c"/><path d="M433.853,234.1l1.28.246-.394.271Z" transform="translate(-428.539 -231.246)" fill="#79b29c"/><path d="M378.62,210.96a6.553,6.553,0,0,1-1.417-2.214c-.1-.562-.558-.27-.626-.73-.488-3.333,1.284-3.745,2.8-3.523.672.1,1.289,2.828,1.454,4.451C380.923,209.82,379.567,211.531,378.62,210.96Z" transform="translate(-375.458 -203.804)" fill="#ffcd9c"/><path d="M379.1,229.914l-2.976.437-.04-.646,2.967-.394Z" transform="translate(-375.078 -226.816)" fill="#f4ad7d"/><path d="M399.923,267.724c-.018-.236-.133-.715-.01-.732s.547.439.547.439Z" transform="translate(-397.078 -261.687)" fill="#f4ad7d"/><path d="M378.8,252.571a6.46,6.46,0,0,0,1.392,2.186c.34-.344-.186-.772-.42-1.6-.357-1.262-.976-1.534-1.438-1.261a.568.568,0,0,0-.113.091C378.359,252.238,378.714,252.084,378.8,252.571Z" transform="translate(-377.056 -247.628)" fill="#f4ad7d"/><path d="M403.627,256.2l-.4.072s-.12-.271.028-.31C403.465,255.906,403.627,256.2,403.627,256.2Z" transform="translate(-400.157 -251.472)" fill="#6b5047"/><path d="M388.447,258.875l-.4.073s-.131-.294.016-.335C388.273,258.556,388.447,258.875,388.447,258.875Z" transform="translate(-386.103 -253.927)" fill="#6b5047"/><path d="M392.426,254.069s.209,1.92.394,1.859a1.985,1.985,0,0,0,.5-.406Z" transform="translate(-390.201 -249.728)" fill="#ffcd9c"/><path d="M415.881,217.585s.288-2.283-.831-3.051c-.508-.348-1.574-.334-.914,1.8C414.368,217.084,415.881,217.585,415.881,217.585Z" transform="translate(-410.098 -212.985)" fill="#93542a"/><path d="M415.3,214.566c-.446-.306-1.394-.368-1.016,1.423a1.517,1.517,0,0,1,1.4,1.554,2.208,2.208,0,0,0,.443.074S416.419,215.333,415.3,214.566Z" transform="translate(-410.349 -213.017)" fill="#703a1b"/><path d="M415.5,235.706a10.343,10.343,0,0,0,.775,2.354c.314-.443-.369-1.532.148-1.939A4.311,4.311,0,0,1,415.5,235.706Z" transform="translate(-411.541 -232.734)" fill="#93542a"/><path d="M374.039,199.112a9.079,9.079,0,0,1,4.97-.267s-.529-2.476-1.429-2.769a10.141,10.141,0,0,0-2.694-.2A14.219,14.219,0,0,0,374.039,199.112Z" transform="translate(-373.185 -195.862)" fill="#9ed8c0"/><path d="M409.1,196.57a4.7,4.7,0,0,0-1-.174,4.151,4.151,0,0,1,.542,2.122,4.8,4.8,0,0,1-.036.584,7.446,7.446,0,0,1,1.924.237S410,196.863,409.1,196.57Z" transform="translate(-404.702 -196.356)" fill="#89c6aa"/><path d="M423.778,254.041l.748-2.527-.082-.153-.83,2.568Z" transform="translate(-419.064 -247.223)" fill="#79b29c"/><path d="M417.012,243.685l.75-1.624-.125-.041-.788,1.554Z" transform="translate(-412.802 -238.578)" fill="#79b29c"/><path d="M425.3,241.389c.086-.418-.092-.819-.372-.87-.251-.046-.481.215-.533.566a.759.759,0,0,0,.3.789C424.934,241.993,425.216,241.788,425.3,241.389Z" transform="translate(-419.773 -237.184)" fill="#ffcd9c"/><path d="M388.133,258.933c.825.973,2.413-.739,2.413-.739-.166,1.379.822,1.927.2,2.438a1.461,1.461,0,0,1-1.4.233C388.9,260.74,388.366,259.4,388.133,258.933Z" transform="translate(-386.228 -253.545)" fill="#9ed8c0"/><path d="M396.961,258.194a3.846,3.846,0,0,1-1.9,1.028c.061.258.065.616.243.6.256-.02,2.564.922.556,1.065a1.432,1.432,0,0,0,1.3-.256C397.783,260.121,396.795,259.573,396.961,258.194Z" transform="translate(-392.643 -253.545)" fill="#8ac4a9"/><path d="M426.677,244.076c.058-.283-.069-.555-.265-.591-.176-.032-.336.143-.371.381a.513.513,0,0,0,.211.536C426.425,244.483,426.622,244.346,426.677,244.076Z" transform="translate(-421.302 -239.929)" fill="#f4ad7d"/><path d="M427.915,251.073c.035-.171-.041-.335-.16-.357s-.2.087-.225.23a.31.31,0,0,0,.128.324C427.762,251.32,427.881,251.237,427.915,251.073Z" transform="translate(-422.683 -246.623)" fill="#ffcd9c"/><path d="M377.668,251.59c.156.095-1.009.3-1.108.049S376.855,251.1,377.668,251.59Z" transform="translate(-375.504 -247.187)" fill="#93542a"/><path d="M394.346,247.227c-.139.14,1.154-.032,1.188-.3S395.067,246.5,394.346,247.227Z" transform="translate(-391.967 -242.911)" fill="#93542a"/><path d="M373.526,231.75l.009.222a22.341,22.341,0,0,1,3.678-.483l.012-.148A12.476,12.476,0,0,0,373.526,231.75Z" transform="translate(-372.71 -228.687)" fill="#d2f9e7"/><path d="M404.891,209.138c-.425-.942-1.145-.369-1.163-.812s1.016-.72,1.016-.72A6.811,6.811,0,0,1,404.891,209.138Z" transform="translate(-400.66 -206.729)" fill="#89c6aa"/><path d="M393.813,435.157c.038.106-.261.284-.185.687.013.069.041.172.065.277.042.186.006.4-.073.4s-.035-.151-.063-.283c-.024-.116-.03-.158-.059-.153a1.109,1.109,0,0,0-.021.328c0,.22-.042.366-.122.367s-.037-.143-.052-.342c-.014-.172-.009-.247-.086-.249-.036,0-.04.114-.082.29-.049.205-.127.325-.189.307-.089-.025,0-.106.024-.348.034-.311.106-.6,0-.762s-.434.04-.439-.111c0-.12.326-.147.724-.23C393.578,435.27,393.773,435.044,393.813,435.157Z" transform="translate(-390.301 -417.282)" fill="#9ed8c0"/><path d="M374.736,434.74c-.076.075.05.37-.191.685-.041.054-.108.131-.174.212-.116.142-.19.344-.136.384s.095-.115.176-.218.094-.123.112-.106a1.322,1.322,0,0,1-.139.3c-.1.193-.141.339-.085.377s.093-.107.2-.273c.09-.143.122-.211.176-.177.025.016-.025.118-.078.291-.062.2-.062.343-.011.357.074.02.051-.091.145-.314.121-.287.206-.574.351-.666s.284.239.358.109c.058-.1-.159-.28-.4-.54C374.847,434.948,374.817,434.66,374.736,434.74Z" transform="translate(-373.35 -416.912)" fill="#9ed8c0"/><path d="M423.529,314.238h1.34a4.117,4.117,0,0,0-.5-.522c-.23-1.554-.064-7.381-.064-7.808,0-.453-1.686-1.814-1.536-2.85.119-.826,1.524-6.233.841-9.614a3.141,3.141,0,0,0-.108-.634c-.023-.08-.057-.2-.1-.339a11.624,11.624,0,0,0-.369-1.161c-.043-.131-.087-.265-.133-.4l1.084.236-.019-1.324.019-.522-1.372.773a15.447,15.447,0,0,0-.919-2.223,8.47,8.47,0,0,1-.572-1.705c.247-1.661.217-3.565-.807-4.74a14.392,14.392,0,0,1,.471,3.671A12.94,12.94,0,0,1,416,295.426c-.441,2.7-1.057,6.428-1.059,7.641,0,1.686.453,6.168.453,6.168a3.221,3.221,0,0,0,.961.44c.033.25.065.5.1.737h0c.18,1.405.327,2.617.395,3.191-.324.13-1.219.635-1.219.635H417.4a2.793,2.793,0,0,0-.152-.354,17.3,17.3,0,0,1,.2-4.227,5.175,5.175,0,0,0,1.406-.635c.472-.22,1.032-.422,1.271-.505a6.239,6.239,0,0,1,.832-.118c0,.005,0,.011,0,.016a17.709,17.709,0,0,0,1.9.074c.065.248.13.5.194.746h0c.438,1.709.827,3.379.984,4.365A3.218,3.218,0,0,0,423.529,314.238Zm.253-24.22-.194.684-.756.012c-.056-.166-.114-.335-.173-.5Z" transform="translate(-411.035 -275.023)" fill="#b7624f" opacity="0.3" style="mix-blend-mode:multiply;isolation:isolate"/></g><path d="M414.342,440.866l.958.856-.254.022-.793-.757Z" transform="translate(-285.417 -226.733)" fill="#7c97a0"/><path d="M355.2,443.241l-.546.855.144.022.452-.757Z" transform="translate(-230.261 -228.931)" fill="#7c97a0"/><g transform="translate(105.835 213.031)"><path d="M190.32,428.068s1.852-2.319,3.495-.032l-.338.354s-.886-2.19-2.9-.081Z" transform="translate(-184.019 -426.957)" fill="#fff6dc"/><path d="M168.542,481.206c-.612-.176.355-1.658,3.9-1.432s3.575,1.385,3.575,1.385Z" transform="translate(-163.707 -475.748)" fill="#af9464"/><path d="M339.607,580.043h-7.15c1.789,3.623,2.424,6.124,0,9.276h7.15C337.965,586.36,338.066,583.9,339.607,580.043Z" transform="translate(-315.556 -568.561)" fill="#6b4e45"/><path d="M339.607,580.043h-7.15c1.789,3.623,2.424,6.124,0,9.276h1.061c.184-2.239,1.3-3.962,2.648-3.962s2.464,1.722,2.648,3.962h.794C337.965,586.36,338.066,583.9,339.607,580.043Z" transform="translate(-315.556 -568.561)" fill="#543c33"/><path d="M303.537,702.057a.315.315,0,0,0,.007-.056c0-.8-3.189-1.452-7.123-1.452S289.3,701.2,289.3,702a.371.371,0,0,0,.007.056Z" transform="translate(-275.616 -680.08)" fill="#bca173"/><path d="M301.787,695.946H314.17a17.133,17.133,0,0,0-12.383,0Z" transform="translate(-287.173 -674.748)" fill="#fff7d7"/><path d="M636.833,489.228l.248.181.747-.619A1.588,1.588,0,0,0,636.833,489.228Z" transform="translate(-597.232 -484.113)" fill="#f4ad7d"/><path d="M497.935,458.878c-1.359-.412-1.851.527-.81.851s1.657,1.386,2.289,1.53c1.826.417,1.677-.59,7.861.374l.1-.223C506.286,461.25,501.708,460.023,497.935,458.878Z" transform="translate(-467.425 -456.337)" fill="#f4ad7d"/><path d="M499.577,462.152c-.631-.144-1.248-1.2-2.289-1.53a.912.912,0,0,1-.483-.3c-.367.207-.309.639.332.839,1.041.325,1.657,1.386,2.289,1.53,1.826.417,1.677-.59,7.861.374l.051-.112C501.655,462.092,501.351,462.557,499.577,462.152Z" transform="translate(-467.438 -457.766)" fill="#f4ad7d"/><path d="M394.677,457.865c-.037.694-5.607,2.862-8.008,2.568s-1.41-2.762-.685-2.919S394.731,456.858,394.677,457.865Z" transform="translate(-364.32 -454.927)" fill="#f4ad7d"/><path d="M392.79,457.953a1.693,1.693,0,0,1-1.323-.7,45.4,45.4,0,0,0-5.484.259c-.726.157-1.716,2.625.685,2.919s8.07-1.765,8.008-2.568c0-.008,0-.015,0-.022A6.832,6.832,0,0,1,392.79,457.953Z" transform="translate(-364.32 -454.927)" fill="#f4ad7d"/><path d="M491.968,464.466c-1.349-.444-1.863.482-.83.831s1.624,1.425,2.252,1.584c1.816.461,1.691-.55,7.85.561l.107-.221C500.26,467.036,495.712,465.7,491.968,464.466Z" transform="translate(-461.896 -461.494)" fill="#ffcd9c"/><path d="M493.564,467.627c-.628-.159-1.219-1.234-2.251-1.584a.912.912,0,0,1-.476-.314c-.372.2-.324.631.312.846,1.032.35,1.624,1.425,2.251,1.584,1.816.461,1.691-.55,7.85.561l.054-.111C495.643,467.618,495.328,468.075,493.564,467.627Z" transform="translate(-461.907 -462.772)" fill="#f4ad7d"/><path d="M174.034,459.256a6.612,6.612,0,0,1-2.633.625c-.526-.045-1,1.23-.5,1.411a7,7,0,0,0,3.117-.3C174.426,460.8,174.034,459.256,174.034,459.256Z" transform="translate(-165.854 -456.782)" fill="#ffcd9c"/><path d="M172.458,466.717a.3.3,0,0,1-.177-.184,4.041,4.041,0,0,1-.881.082c-.526-.044-1,1.23-.5,1.411a7,7,0,0,0,3.117-.3c.212-.1.206-.574.152-1A4.511,4.511,0,0,1,172.458,466.717Z" transform="translate(-165.854 -463.516)" fill="#f4ad7d"/><path d="M388.366,462.346c-.054.693-5.674,2.727-8.067,2.376s-1.344-2.795-.615-2.934S388.446,461.341,388.366,462.346Z" transform="translate(-358.457 -458.981)" fill="#ffcd9c"/><path d="M386.479,462.389a1.693,1.693,0,0,1-1.305-.73,45.384,45.384,0,0,0-5.489.128c-.729.14-1.778,2.583.615,2.934s8.11-1.572,8.067-2.376c0-.008,0-.015,0-.022A6.826,6.826,0,0,1,386.479,462.389Z" transform="translate(-358.457 -458.981)" fill="#f4ad7d"/><path d="M206,431.5c6.123.732,7.732,0,8.59-.644.211-.16,3.236-4.372-3.869-2.148-.91.285-2.533-.98-3.581-2.627,0,0-4.219,1.785-4.339,3.349C202.74,430.184,204.095,431.274,206,431.5Z" transform="translate(-195.564 -426.081)" fill="#ffcd9c"/><path d="M229,442.527c-.629.183-2.352-.621-3.234-1.514-.583.877-.846,2.1-2.974,2.428-.7.108.24,1.728,1.487,1.877,6.122.733,7.732.005,8.59-.643C233.076,444.516,236.457,440.358,229,442.527Z" transform="translate(-213.844 -439.899)" fill="#f4ad7d"/><path d="M215.363,473.918c.474-1.18,6.7.7,7.354,1.03s-.216.87-.878.852S214.509,476.046,215.363,473.918Z" transform="translate(-207.125 -469.994)" fill="#ffcd9c"/><path d="M224.96,490.14a3.646,3.646,0,0,0-.344-.139c.006.292-.607.595-1.107.582-.485-.013-4.181.124-5.8-.634,1,1.212,5.812,1.028,6.371,1.043C224.744,491.01,225.608,490.472,224.96,490.14Z" transform="translate(-209.368 -485.186)" fill="#f4ad7d"/><path d="M299.936,460.274c-.24-1.366,4.13-1.332,7.26-2.493.831-.308.848.271.157.5C305.218,458.983,300.276,462.2,299.936,460.274Z" transform="translate(-285.452 -455.335)" fill="#ffcd9c"/><path d="M307.679,459.04c-2.135.7-7.077,3.924-7.417,1.994-.069-.393-.31.165-.268.4.339,1.93,5.282-1.291,7.416-1.994.385-.127.55-.362.477-.493A1.2,1.2,0,0,1,307.679,459.04Z" transform="translate(-285.509 -456.498)" fill="#f4ad7d"/><path d="M131.308,445.283a3.1,3.1,0,0,1-2.106,3.524c-2.159.434-2.837-.909-3.092-2.191-.221-1.106,1.919-1.7,2.1-1.674A6.045,6.045,0,0,1,131.308,445.283Z" transform="translate(-124.583 -443.472)" fill="#ffcd9c"/><path d="M163.917,480.638a2.378,2.378,0,0,0,.624-.4c.144-.18.212-.97.012-.78a1.389,1.389,0,0,1-1.584.18Z" transform="translate(-158.708 -475.454)" fill="#703616"/><path d="M154.041,469.814c.018.054,1.116.828,1.116.828s-.09-.684.486-.7.576-.216.612-.288a.955.955,0,0,1-.882-.108C154.977,469.238,154.041,469.814,154.041,469.814Z" transform="translate(-150.446 -466.22)" fill="#703616"/><path d="M168.575,475.388c.084-.243.161-.649-.032-.717s-.582.228-.666.472a.428.428,0,0,0,.2.563A.424.424,0,0,0,168.575,475.388Z" transform="translate(-163.221 -471.039)" fill="#ffcd9c"/><path d="M170.783,476.53c.049-.144.094-.384-.02-.426s-.343.131-.392.275a.258.258,0,0,0,.117.336A.246.246,0,0,0,170.783,476.53Z" transform="translate(-165.54 -472.368)" fill="#f4ad7d"/><path d="M173.031,475.715c.027-.076.052-.2-.008-.223s-.184.073-.212.149a.13.13,0,0,0,.061.174A.137.137,0,0,0,173.031,475.715Z" transform="translate(-167.806 -471.805)" fill="#ffcd9c"/><g transform="translate(3.541 0.87)"><path d="M176.66,452.459a.047.047,0,0,1-.046-.049.05.05,0,0,1,.059-.035.049.049,0,0,1,.047.049A.05.05,0,0,1,176.66,452.459Z" transform="translate(-174.876 -451.284)" fill="#5b371e"/><path d="M160,448.173a.566.566,0,0,1-.183-.746A1.394,1.394,0,0,0,160,448.173Z" transform="translate(-159.268 -446.705)" fill="#f4ad7d"/><path d="M167.659,453.8c-.072-.006-.136-.108-.146-.238s.044-.269.126-.28.164.116.164.273S167.736,453.805,167.659,453.8Z" transform="translate(-166.454 -452.124)" fill="#f4ad7d"/><path d="M160.431,449.013c.035.007.081.109.107.237s.023.263-.014.271-.1-.118-.121-.272S160.394,449.006,160.431,449.013Z" transform="translate(-159.864 -448.172)" fill="#f4ad7d"/><path d="M177.112,445.977c-.048.089-.156-.563.045-.424A1,1,0,0,1,177.112,445.977Z" transform="translate(-175.27 -444.953)" fill="#f4ad7d"/><path d="M153.374,445.962a.847.847,0,0,0,.41,1.076A1.086,1.086,0,0,1,153.374,445.962Z" transform="translate(-153.316 -445.349)" fill="#a5331c"/><path d="M161.177,437.89l.071.447h-.955l.745-.592Z" transform="translate(-159.773 -437.745)" fill="#ffcd9c"/><path d="M172.133,441.776l-.473-.306-.036.237Z" transform="translate(-170.258 -441.193)" fill="#ffcd9c"/><path d="M178.123,445.512a6.146,6.146,0,0,0-.686-.24l-.067.574S177.991,445.8,178.123,445.512Z" transform="translate(-175.576 -444.711)" fill="#5b371e"/><path d="M178.3,446.14l.038-.327c-.086-.029-.176-.057-.27-.085l-.055.469Z" transform="translate(-176.169 -445.133)" fill="#ffeadc"/></g><path d="M629.892,498.3l.248.181.747-.619A1.588,1.588,0,0,0,629.892,498.3Z" transform="translate(-590.809 -492.511)" fill="#ffcd9c"/><g transform="translate(11.725 10.791)"><path d="M266.957,574.753c-1.541,0-2.235-1.385-2.793-2.5-.362-.723-.675-1.347-1.108-1.347v-.136c.519,0,.849.659,1.232,1.423.541,1.079,1.214,2.422,2.669,2.422a6.617,6.617,0,0,0,4.2-1.648l.1.1A6.772,6.772,0,0,1,266.957,574.753Z" transform="translate(-263.056 -570.772)" fill="#543c33"/></g><g transform="translate(11.725 10.11)"><path d="M266.957,565.626c-1.541,0-2.235-1.385-2.793-2.5-.362-.723-.675-1.347-1.108-1.347v-.136c.519,0,.849.659,1.232,1.423.541,1.079,1.214,2.422,2.669,2.422a6.619,6.619,0,0,0,4.2-1.648l.1.1A6.773,6.773,0,0,1,266.957,565.626Z" transform="translate(-263.056 -561.645)" fill="#543c33"/></g><g transform="translate(19.839 10.779)"><path d="M375.275,574.005c1.327.216,2.154-1.054,2.818-2.074.431-.662.8-1.234,1.177-1.174l.023-.134c-.447-.073-.841.531-1.3,1.231-.644.989-1.446,2.22-2.7,2.016a5.431,5.431,0,0,1-3.344-2.214l-.1.082A5.56,5.56,0,0,0,375.275,574.005Z" transform="translate(-371.854 -570.617)" fill="#543c33"/></g><g transform="translate(19.952 10.108)"><path d="M376.784,565c1.327.216,2.154-1.054,2.818-2.074.431-.662.8-1.234,1.177-1.174l.022-.134c-.447-.073-.84.531-1.3,1.231-.644.989-1.446,2.22-2.7,2.016a5.431,5.431,0,0,1-3.344-2.214l-.1.082A5.558,5.558,0,0,0,376.784,565Z" transform="translate(-373.363 -561.614)" fill="#543c33"/></g><g transform="translate(20.029 8.159)"><path d="M378.646,538.312c-1.088.623-2.1.021-2.909-.462-.527-.314-.982-.585-1.288-.41l-.051-.087c.366-.21.847.077,1.4.408.787.469,1.766,1.051,2.793.464a5.583,5.583,0,0,0,2.347-2.745l.1.023A5.712,5.712,0,0,1,378.646,538.312Z" transform="translate(-374.398 -535.48)" fill="#543c33"/></g><path d="M322.7,521.469a4.221,4.221,0,0,0,8.3,0Z" transform="translate(-306.53 -514.355)" fill="#543c33"/><path d="M337.229,540.185a3.784,3.784,0,1,0-3.784,3.729A3.757,3.757,0,0,0,337.229,540.185Z" transform="translate(-312.969 -528.224)" fill="#af9464"/><path d="M349.874,553.74a2.676,2.676,0,1,0-2.676,2.637A2.656,2.656,0,0,0,349.874,553.74Z" transform="translate(-326.722 -541.779)" fill="#72544c"/><path d="M353.1,557.2a2.393,2.393,0,1,0-2.393,2.358A2.375,2.375,0,0,0,353.1,557.2Z" transform="translate(-330.231 -545.237)" fill="#f2e8bb"/><path d="M333.856,585.539a3.759,3.759,0,0,0,3.78-3.589,10.519,10.519,0,0,0-3.338-.515,9.736,9.736,0,0,0-4.192.865A3.767,3.767,0,0,0,333.856,585.539Z" transform="translate(-313.38 -569.849)" fill="#ffd5c2" opacity="0.6" style="mix-blend-mode:overlay;isolation:isolate"/><path d="M340.51,543.98a3.168,3.168,0,1,0,3.215,3.168A3.191,3.191,0,0,0,340.51,543.98Zm0,6.193a3.025,3.025,0,1,1,3.069-3.025A3.047,3.047,0,0,1,340.51,550.173Z" transform="translate(-320.034 -535.187)" fill="#5e362a"/><path d="M201.158,515.088c0,.342-.456.62-1.019.62H169.4c-.46,0-.833-.227-.833-.507v-.451c0-.218.29-.394.648-.394h30.828c.613,0,1.111.3,1.111.676Z" transform="translate(-163.892 -507.773)" fill="#543c33"/><path d="M183.008,497.222a1.045,1.045,0,0,0-1.118-.951H148.154a.855.855,0,0,0-.915.778v.691a.665.665,0,0,0,.711.6h33.838a1.14,1.14,0,0,0,1.219-1.037Z" transform="translate(-144.151 -491.036)" fill="#bca173"/><path d="M183.008,502.968c0-.292-.5-.529-1.118-.529H148.154c-.505,0-.915.194-.915.433v.385c0,.186.318.337.711.337h33.838c.673,0,1.219-.259,1.219-.577Z" transform="translate(-144.151 -496.744)" fill="#f2e8bb"/><path d="M199.595,495.486c0-.083-.461-.149-1.03-.149h-31.1c-.466,0-.843.055-.843.122v.109c0,.052.293.095.656.095h31.189c.621,0,1.124-.073,1.124-.163Z" transform="translate(-162.092 -490.172)" fill="#fff7d7"/><path d="M179.656,531.231h-8.079l-1.1,5.92h9.183Z" transform="translate(-165.653 -523.389)" fill="#af9464"/><path d="M186.257,531.4h-7.37l-1.008,5h8.378Z" transform="translate(-172.507 -523.544)" fill="#ddc79b"/><path d="M191.519,543.7H185.27l-.855,3.708h7.1Z" transform="translate(-178.555 -534.928)" fill="#f2e8bb"/><rect width="3.084" height="1.452" transform="translate(9.32 9.418)" fill="#5e362a"/><rect width="0.361" height="2.223" transform="translate(9.573 9.146)" fill="#f2e8bb"/><rect width="0.361" height="2.223" transform="translate(10.271 9.146)" fill="#f2e8bb"/><rect width="0.361" height="2.223" transform="translate(11.046 9.146)" fill="#f2e8bb"/><rect width="0.362" height="2.223" transform="translate(11.743 9.146)" fill="#f2e8bb"/><path d="M464.253,523.624H453.16v2.9a1.462,1.462,0,0,0,1.473,1.452h8.516a1.1,1.1,0,0,0,1.1-1.089Z" transform="translate(-427.257 -516.349)" fill="#af9464"/><path d="M472,526.057h-10.27v2.55A1.2,1.2,0,0,0,463,529.732h7.667A1.266,1.266,0,0,0,472,528.548Z" transform="translate(-435.187 -518.601)" fill="#fff7d7"/><path d="M467.074,546.508a27.193,27.193,0,0,1-5.345-.484v1.06A1.2,1.2,0,0,0,463,548.21h7.667A1.266,1.266,0,0,0,472,547.026v-.92A28.123,28.123,0,0,1,467.074,546.508Z" transform="translate(-435.187 -537.079)" fill="#f2e8bb"/><path d="M479.325,531.859a.349.349,0,0,0-.368-.327h-8.009a.48.48,0,0,0-.506.449v.041a.349.349,0,0,0,.368.327h7.963A.524.524,0,0,0,479.325,531.859Z" transform="translate(-443.249 -523.668)" fill="#543c33"/><rect width="0.449" height="0.442" transform="translate(29.194 10.791)" fill="#af9464"/><rect width="0.449" height="0.442" transform="translate(30.42 10.791)" fill="#af9464"/><rect width="0.449" height="0.442" transform="translate(32.008 10.791)" fill="#af9464"/><g transform="translate(3.424 5.582)"><path d="M153.167,501.554a.692.692,0,0,0-.763-.619.7.7,0,0,0-.65.745.692.692,0,0,0,.763.62A.7.7,0,0,0,153.167,501.554Z" transform="translate(-151.751 -500.932)" fill="#a06852"/><path d="M154.089,502.527a.614.614,0,0,0-.677-.549.623.623,0,0,0-.577.661.613.613,0,0,0,.677.549A.623.623,0,0,0,154.089,502.527Z" transform="translate(-152.753 -501.897)" fill="#fff7d7"/></g><g transform="translate(36.831 5.563)"><path d="M601.115,501.3a.692.692,0,0,0-.763-.619.7.7,0,0,0-.651.745.692.692,0,0,0,.763.62A.7.7,0,0,0,601.115,501.3Z" transform="translate(-599.699 -500.673)" fill="#a06852"/><path d="M602.036,502.267a.614.614,0,0,0-.677-.549.623.623,0,0,0-.576.661.613.613,0,0,0,.677.549A.623.623,0,0,0,602.036,502.267Z" transform="translate(-600.701 -501.637)" fill="#fff7d7"/></g><path d="M108.666,443.521c-.028-.684-2.15-.652-2.295.169,0,0-1.063,1.425-.193,1.643,0,0-.193,1.16.87,1.184,0,0-.58,1.232.821.894,0,0-.1.483,1.3-.217a12.815,12.815,0,0,0,2.1-.362S108.69,444.1,108.666,443.521Z" transform="translate(-105.835 -441.774)" fill="#9ee8ef"/><path d="M172.777,439.626c-.241.052.274,1.932,1.82,1.691C174.6,441.317,175.965,438.933,172.777,439.626Z" transform="translate(-167.732 -438.499)" fill="#fff6dc"/><path d="M201.407,434.058a14.092,14.092,0,0,1-.29,6.74c2.422.247,4.712.448,6.908.606.033-.824-.116-2.258.13-2.241a7.612,7.612,0,0,1,3.43,1.691,3.225,3.225,0,0,0-.516.744c2.393.133,4.684.212,6.926.242a4.555,4.555,0,0,0-.741-1.2c.2,0,2.437-1.434,2.641-1.433.048.354-.048,2.448.064,2.642,3.324,0,6.569-.106,9.9-.307l1.836-5.6s-9.763-3.186-16.5-2.137-9.4-2.115-9.4-2.115C203.635,432.194,202.25,432.942,201.407,434.058Z" transform="translate(-194.011 -431.273)" fill="#b7624f" opacity="0.6" style="mix-blend-mode:multiply;isolation:isolate"/><path d="M110.01,447.8c-1.77,0-3.2-1.031-3.2-2.3a1.671,1.671,0,0,1,.016-.227.7.7,0,0,0-.45.485s-1.063,1.425-.193,1.643c0,0-.193,1.16.87,1.184,0,0-.58,1.232.821.894,0,0-.1.483,1.3-.217a12.815,12.815,0,0,0,2.1-.362s-.466-.493-1-1.1C110.184,447.8,110.1,447.8,110.01,447.8Z" transform="translate(-105.835 -443.843)" fill="#68bcc1"/><path d="M134.068,461.325c-.459-.6-.676-1.667-.314-2.1,0,0-.193,1.4.8,1.933Z" transform="translate(-131.503 -456.751)" fill="#68bcc1"/><path d="M120.391,451.292c-.1-.752.237-1.783.767-1.982a2.005,2.005,0,0,0-.263,2.074Z" transform="translate(-119.289 -447.578)" fill="#68bcc1"/><path d="M141.048,443.351s-.762,1.058,2.144,3.38l.224-.046A11.489,11.489,0,0,1,141.048,443.351Z" transform="translate(-138.338 -442.063)" fill="#68bcc1"/><path d="M167.782,459.115l-1.155,2.823.414-.07.918-2.673Z" transform="translate(-162.093 -456.652)" fill="#fff6dc"/><path d="M175.427,442.462a1.351,1.351,0,0,1-1.264-.692l-.142.029c-.22.048.25,1.766,1.663,1.546a2.065,2.065,0,0,0,.265-.964A1.7,1.7,0,0,1,175.427,442.462Z" transform="translate(-168.889 -440.6)" fill="#ffdec0"/><path d="M174.661,442.7a1.7,1.7,0,0,1-1.876-1.532l-.009,0c-.241.052.274,1.932,1.82,1.691a2.678,2.678,0,0,0,.167-.37C174.707,442.618,174.661,442.7,174.661,442.7Z" transform="translate(-167.732 -440.043)" fill="#fff6dc"/><path d="M186.26,432.84a4.077,4.077,0,0,1,1.124-.559c.256.015-.089.9-.089.9A1.285,1.285,0,0,0,186.26,432.84Z" transform="translate(-180.262 -431.818)" fill="#fcdbb1"/><path d="M190.687,434.5a2.6,2.6,0,0,1,.716-.356c.163.009-.056.572-.056.572A.817.817,0,0,0,190.687,434.5Z" transform="translate(-184.359 -433.543)" fill="#fff6dc"/></g><path d="M210.187,424.892s.58,4.324.1,6.233a121.746,121.746,0,0,0,27.78.677l1.836-4.687s-9.522-3.5-16.26-2.523-9.4-1.97-9.4-1.97Z" transform="translate(-96.569 -209.848)" fill="#fff6dc"/><path d="M228.25,464.049c-7.577-.288-14.084-1.436-17.094-2.854a20.723,20.723,0,0,1,.024,5.626,121.748,121.748,0,0,0,27.78.676l1.522-3.885A75.468,75.468,0,0,1,228.25,464.049Z" transform="translate(-97.466 -245.545)" fill="#f9e4c7"/><path d="M446.088,483.758c-2.8-.338-8.6-2.851-5.653-3.479s9.325,1.788,9.325,1.788Z" transform="translate(-308.893 -263.11)" fill="#f9e4c7"/><path d="M315.135,480.954c1.4-.918,1.208-3.092,2.609-2.851s3.962,2.706,3.962,2.706Z" transform="translate(-193.69 -261.175)" fill="#f9e4c7"/><path d="M222.5,461.1c2.222-.676,4.058-.87,4.686-.58s.294,1.81,0,2.319C226.651,463.757,222.5,461.1,222.5,461.1Z" transform="translate(-107.96 -244.799)" fill="#f9e4c7"/><path d="M362.1,440.614l.435.628,3.237-.217a5.263,5.263,0,0,1,.362-.652A4.99,4.99,0,0,1,362.1,440.614Z" transform="translate(-237.155 -226.271)" fill="#f9e4c7"/></g></svg>