<svg xmlns="http://www.w3.org/2000/svg" width="42.709" height="40.399" viewBox="0 0 42.709 40.399"><g transform="translate(29.333 -82.592)"><g transform="translate(-29.333 82.592)"><path d="M196.859,90.069l6.987-7.358-.113-.119-7,7.368a.979.979,0,0,1,.115.1Z" transform="translate(-165.607 -82.592)" fill="#76d5fd"/><path d="M171.339,132.595a.981.981,0,0,0-.115-.1.6.6,0,0,0-.574-.126l-3.5,3.686.46.484,3.167-3.335.569-.6Z" transform="translate(-140.093 -125.124)" fill="#54a2c3"/><path d="M65.042,143.622l-2.306-2.428-14,14.746,2.286,2.408,1.963-2.068-1.847-1.945.889-.936,0,0L62.718,142.15l1.861,1.96.46.484.463-.488Z" transform="translate(-37.985 -132.695)" fill="#54a2c3"/><path d="M85.221,149.744l-1.861-1.96L72.674,159.038l2.321,2.445,9.871-10.4.815-.858Z" transform="translate(-58.627 -138.329)" fill="#c8eefe"/><path d="M-17.3,266.729l-8.722,9.187-2.425-2.554-.889.936,2.9,3.059.389-.41.5-.527,8.722-9.187Z" transform="translate(29.333 -240.023)" fill="#54a2c3"/><path d="M66.349,225.352l0,0-.889.936,1.846,1.945L65.339,230.3l.479.5,1.963-2.067.593-.624L68.48,228l.19-.2Z" transform="translate(-52.302 -204.643)" fill="#9ccee4"/><path d="M36.932,237.511,34.646,235.1l-1.25-1.317-1,1.053,3.536,3.725.479.5.852-.9.148-.156Z" transform="translate(-23.896 -211.858)" fill="#54a2c3"/><path d="M197.744,90.926l7-7.372-.137-.145-6.987,7.358A1.16,1.16,0,0,1,197.744,90.926Z" transform="translate(-166.367 -83.291)" fill="#54a2c3"/><path d="M174.35,134.3a1.166,1.166,0,0,0-.125-.158l-.569.6-3.167,3.335.485.51,3.5-3.686A.726.726,0,0,0,174.35,134.3Z" transform="translate(-142.973 -126.669)" fill="#54a2c3"/><path d="M86.3,161.787l-.485-.51-.463.488.485.51,1.861,1.96L77.017,175.489l0,0-.889.936-1.871-1.971L72.3,176.527l2.311,2.434,14-14.746Z" transform="translate(-58.303 -149.865)" fill="#54a2c3"/><path d="M100.7,165.149l-.485-.51-.815.858-9.871,10.4,2.346,2.471,10.685-11.254Z" transform="translate(-73.161 -152.739)" fill="#9ccee4"/><path d="M-6.873,279.9l8.722-9.187-.479-.5L-7.352,279.4l-.5.527-.389.41L-5.33,283.4l.889-.936Z" transform="translate(11.145 -242.998)" fill="#54a2c3"/><path d="M74.016,244.707l-2.346-2.471-.19.2-.106.112-.593.624-1.963,2.068.479.5,1.963-2.068,1.871,1.971.889-.936Z" transform="translate(-55.303 -219.083)" fill="#79bfdc"/><path d="M65.347,265.886l-2.311-2.434-.479-.5-.148.156-.852.9.479.5,3.561,3.751,1-1.053Z" transform="translate(-49.041 -236.789)" fill="#54a2c3"/><path d="M.075.008.371,0,.3,2.89,0,2.9Z" transform="translate(26.143 12.844) rotate(-45)" fill="#fff"/><path d="M.075.008.371,0,.3,2.89,0,2.9Z" transform="translate(25.032 14.015) rotate(-45)" fill="#fff"/><path d="M.075.008.371,0,.3,2.89,0,2.9Z" transform="translate(23.921 15.185) rotate(-45)" fill="#fff"/><path d="M.075.008.371,0,.3,2.89,0,2.9Z" transform="translate(22.81 16.355) rotate(-45)" fill="#fff"/><path d="M.075.008.371,0,.3,2.89,0,2.9Z" transform="translate(21.698 17.526) rotate(-45)" fill="#fff"/><path d="M.075.008.371,0,.3,2.89,0,2.9Z" transform="translate(20.587 18.696) rotate(-45)" fill="#fff"/><path d="M.075.008.371,0,.3,2.89,0,2.9Z" transform="translate(19.476 19.866) rotate(-45)" fill="#fff"/><path d="M.075.008.371,0,.3,2.89,0,2.9Z" transform="translate(18.365 21.036) rotate(-45)" fill="#fff"/><path d="M.075.008.371,0,.3,2.89,0,2.9Z" transform="translate(17.254 22.207) rotate(-45)" fill="#fff"/></g><g transform="matrix(0.951, -0.309, 0.309, 0.951, 8.911, 84.204)"><path d="M1.365,0s-3,6.673-.109,6.628C4.082,6.584,1.365,0,1.365,0Z" transform="translate(0 0)" fill="#fff"/><path d="M.639.328A.339.339,0,0,1,.314.666.315.315,0,0,1,0,.338.339.339,0,0,1,.324,0,.315.315,0,0,1,.639.328Z" transform="translate(0.522 5.082)" fill="#c8eefe"/></g></g></svg>